<svg id="Capa_1" enable-background="new 0 0 512 512" height="512" viewBox="0 0 512 512" width="512" xmlns="http://www.w3.org/2000/svg"><g><path d="m497 0h-482c-8.284 0-15 6.716-15 15v482c0 8.284 6.716 15 15 15h482c8.284 0 15-6.716 15-15v-482c0-8.284-6.716-15-15-15zm-241 361.733c36.428 0 66.902-25.974 73.876-60.375h-73.753c-8.284 0-15-6.716-15-15v-60.25c0-8.284 6.716-15 15-15h150.502c8.284 0 15 6.716 15 15v60.257c0 91.322-74.296 165.621-165.618 165.625-44.242.002-85.835-17.225-117.119-48.508s-48.513-72.876-48.513-117.117v-73.361c0-84.364 68.636-153 153-153h133.248c8.284 0 15 6.716 15 15v60.25c0 8.284-6.716 15-15 15h-130.998c-35.841 0-65 29.159-65 65v71.104c0 41.562 33.813 75.375 75.375 75.375z"/><path d="m150.625 286.358v-71.104c0-52.383 42.617-95 95-95h115.998v-30.25h-118.248c-67.822 0-123 55.178-123 123v73.361c0 36.228 14.108 70.287 39.726 95.903s59.677 39.723 95.905 39.722c74.781-.003 135.619-60.845 135.619-135.625v-45.257h-120.502v30.25h75.252c8.284 0 15 6.716 15 15 0 58.104-47.271 105.375-105.375 105.375s-105.375-47.271-105.375-105.375z"/></g></svg>